PathFileType	4	(X/Y/Z)	c:/Users/goper/Files/vsCode/490R/osim_files/A03/A03_Static03.trc
DataRate	CameraRate	NumFrames	NumMarkers	Units                	OrigDataRate	OrigDataStartFrame	OrigNumFrames
250.00	250.00	4	36	mm	250.0	1744	1993
                Frame#	Time	LPSIS			LASIS			LTH1			LTH2			LTH3			LTH4			LLFE			LMFE			LSH1			LSH2			LSH3			LSH4			LLMAL			LMMAL			LCAL			LMTP5			LTOE			LMTP1			RPSIS			RASIS			RTH1			RTH2			RTH3			RTH4			RLFE			RMFE			RSH1			RSH2			RSH3			RSH4			RLMAL			RMMAL			RCAL			RMTP1			RTOE			RMTP5		
		X1	Y1	Z1	X2	Y2	Z2	X3	Y3	Z3	X4	Y4	Z4	X5	Y5	Z5	X6	Y6	Z6	X7	Y7	Z7	X8	Y8	Z8	X9	Y9	Z9	X10	Y10	Z10	X11	Y11	Z11	X12	Y12	Z12	X13	Y13	Z13	X14	Y14	Z14	X15	Y15	Z15	X16	Y16	Z16	X17	Y17	Z17	X18	Y18	Z18	X19	Y19	Z19	X20	Y20	Z20	X21	Y21	Z21	X22	Y22	Z22	X23	Y23	Z23	X24	Y24	Z24	X25	Y25	Z25	X26	Y26	Z26	X27	Y27	Z27	X28	Y28	Z28	X29	Y29	Z29	X30	Y30	Z30	X31	Y31	Z31	X32	Y32	Z32	X33	Y33	Z33	X34	Y34	Z34	X35	Y35	Z35	X36	Y36	Z36

1744	6.97200	-359.30103	1049.09607	432.18057	-111.40056	992.84723	316.29190	-169.70862	645.87885	242.31720	-157.95010	604.24048	238.87206	-107.90700	652.89941	256.97681	-107.34245	609.21790	252.68297	-158.86623	557.64764	244.08475	-132.87865	531.16467	396.96683	-214.01216	477.73914	239.74649	-217.99850	429.38037	236.83911	-152.56879	464.23068	239.98920	-167.58562	418.71329	240.96761	-261.65466	105.15275	236.55884	-244.28137	104.62395	329.59683	-329.33090	85.19617	294.22595	-117.04572	41.26249	207.82249	-80.46022	68.84564	274.39142	-107.06177	48.33221	321.74881	-362.77078	1055.79553	511.35419	-118.17696	990.32190	621.86920	-212.48715	629.28644	691.46967	-205.93155	584.97150	689.44788	-151.46199	632.10632	695.21149	-151.42902	587.61627	693.01672	-184.12317	546.14581	682.71521	-125.88446	539.07355	569.19250	-241.45100	485.09018	680.91241	-251.13123	446.74490	696.06116	-183.19789	470.71448	696.08331	-201.94884	429.55191	709.06244	-279.52878	129.09196	689.43805	-236.01137	127.95826	611.96747	-335.22229	85.38207	637.51886	-121.30257	48.66923	609.89996	-94.53245	71.66636	660.14117	-129.98814	41.55793	728.50568
1745	6.97600	-359.34601	1049.11230	432.17715	-111.38298	992.87500	316.28662	-169.69704	645.84131	242.31114	-157.94360	604.23767	238.89241	-107.92463	652.89545	256.97452	-107.35204	609.20673	252.68298	-158.86517	557.64111	244.10738	-132.87379	531.17273	396.98401	-214.02785	477.74536	239.76155	-217.99594	429.39838	236.83366	-152.57632	464.23108	239.99281	-167.59303	418.72083	240.98038	-261.46075	105.02545	236.75346	-244.28223	104.60601	329.62021	-329.33896	85.18313	294.23569	-117.03835	41.27901	207.81439	-80.46840	68.82328	274.39679	-107.07119	48.30468	321.74847	-362.67459	1055.76807	511.33173	-118.17206	990.33087	621.88013	-212.48338	629.26190	691.47186	-205.93457	584.94904	689.45892	-151.47954	632.09003	695.19965	-151.43581	587.59955	693.01849	-184.09795	546.13281	682.73273	-125.87746	539.08380	569.19196	-241.42766	485.07843	680.90985	-251.08408	446.74899	696.07275	-183.18465	470.70740	696.09106	-201.44231	429.79486	709.18384	-279.52274	129.07481	689.43964	-236.00592	127.94584	611.95776	-335.20834	85.36076	637.53448	-121.32230	48.66568	609.89825	-94.50738	71.65522	660.15051	-129.96890	41.53617	728.49811
1746	6.98000	-359.31396	1049.09412	432.16742	-111.39433	992.85205	316.29214	-169.70512	645.87549	242.30304	-157.93158	604.24896	238.87509	-107.92632	652.90131	256.97510	-107.36989	609.21307	252.68733	-158.85269	557.65247	244.07780	-132.87735	531.17603	396.98746	-214.02390	477.73654	239.75267	-217.98921	429.40128	236.82224	-152.59018	464.23636	239.98566	-167.60252	418.70227	240.96912	-261.43814	105.01691	236.73332	-244.24142	104.60458	329.63205	-329.33810	85.22085	294.25073	-117.02732	41.26888	207.81735	-80.45882	68.84592	274.40659	-107.06416	48.29830	321.75723	-362.78979	1055.78845	511.33200	-118.20059	990.33063	621.89697	-212.44189	629.24847	691.49103	-205.90004	584.92773	689.46918	-151.45116	632.09967	695.20746	-151.41089	587.59802	693.02130	-184.06650	546.10693	682.70001	-125.87137	539.07043	569.17065	-241.43318	485.08194	680.90900	-251.07695	446.74158	696.09662	-183.16179	470.70688	696.11096	-201.89842	429.53296	709.07104	-279.47534	129.07033	689.45746	-236.00777	127.95763	611.94641	-335.20093	85.35289	637.55731	-121.30509	48.66207	609.90271	-94.51385	71.63820	660.16272	-129.98102	41.53310	728.54034
1747	6.98400	-359.33917	1049.10596	432.14899	-111.37599	992.86139	316.29398	-169.68376	645.87140	242.30321	-157.95741	604.26038	238.89079	-107.92034	652.90759	256.96848	-107.35480	609.22406	252.68944	-158.84666	557.65594	244.07898	-132.90082	531.15240	397.00168	-214.03796	477.74683	239.75626	-218.00835	429.40268	236.84561	-152.59038	464.25418	239.98793	-167.60757	418.71780	240.96986	-261.44080	105.03368	236.75226	-244.25293	104.60046	329.64893	-329.32330	85.19753	294.23853	-117.02559	41.28769	207.81866	-80.48362	68.78160	274.40201	-107.07295	48.28638	321.76175	-362.76340	1055.78784	511.32407	-118.22210	990.28705	621.89722	-212.44539	628.91766	691.23517	-205.88843	584.91040	689.49097	-151.44153	632.08862	695.20795	-151.44464	587.59021	693.02155	-184.08229	546.10254	682.74323	-125.90214	539.07373	569.20209	-241.40781	485.08380	680.94263	-251.07973	446.72150	696.09760	-183.16289	470.70718	696.11859	-201.87424	429.51761	709.08832	-279.50662	129.06351	689.45520	-235.99612	127.97771	611.96570	-335.21060	85.35435	637.56262	-121.31824	48.64645	609.92828	-94.51069	71.63428	660.16461	-129.99518	41.51538	728.53070
